<svg xmlns="http://www.w3.org/2000/svg" viewBox="0 0 512 512">
  <defs><linearGradient id="g" x1="0" y1="0" x2="1" y2="1">
    <stop offset="0" stop-color="#b4552d"/><stop offset="1" stop-color="#964222"/>
  </linearGradient></defs>
  <rect width="512" height="512" rx="112" fill="url(#g)"/>
  <path d="M96 164h150c10 0 18 8 18 18v190H114c-10 0-18-8-18-18V164z" fill="#faf6ef"/>
  <path d="M416 164H266c-10 0-18 8-18 18v190h148c10 0 18-8 18-18V164z" fill="#faf6ef"/>
  <g fill="#5a3e2d" opacity=".42">
    <rect x="130" y="206" width="98" height="11" rx="5"/><rect x="130" y="248" width="98" height="11" rx="5"/>
    <rect x="130" y="290" width="72" height="11" rx="5"/>
    <rect x="284" y="206" width="98" height="11" rx="5"/><rect x="284" y="248" width="98" height="11" rx="5"/>
    <rect x="284" y="290" width="72" height="11" rx="5"/>
  </g>
  <path d="M330 164h30v130l-15-18-15 18z" fill="#c85a3c"/>
</svg>
